<svg width="24" height="24" viewBox="0 0 24 24" fill="none" xmlns="http://www.w3.org/2000/svg">
<g clip-path="url(#clip0_1261_4007)">
<path d="M2 11H13C13.5304 11 14.0391 10.7893 14.4142 10.4142C14.7893 10.0391 15 9.53043 15 9V2C15 1.46957 14.7893 0.960859 14.4142 0.585786C14.0391 0.210714 13.5304 0 13 0L2 0C1.46957 0 0.960859 0.210714 0.585786 0.585786C0.210714 0.960859 0 1.46957 0 2L0 9C0 9.53043 0.210714 10.0391 0.585786 10.4142C0.960859 10.7893 1.46957 11 2 11ZM2 2H13V9H2V2Z" fill="#374957"/>
<path d="M22.0002 0H19.0002C18.4698 0 17.9611 0.210714 17.586 0.585786C17.211 0.960859 17.0002 1.46957 17.0002 2V9C17.0002 9.53043 17.211 10.0391 17.586 10.4142C17.9611 10.7893 18.4698 11 19.0002 11H22.0002C22.5307 11 23.0394 10.7893 23.4145 10.4142C23.7895 10.0391 24.0002 9.53043 24.0002 9V2C24.0002 1.46957 23.7895 0.960859 23.4145 0.585786C23.0394 0.210714 22.5307 0 22.0002 0V0ZM22.0002 9H19.0002V2H22.0002V9Z" fill="#374957"/>
<path d="M5 13H2C1.46957 13 0.960859 13.2107 0.585787 13.5858C0.210714 13.9609 0 14.4696 0 15L0 22C0 22.5304 0.210714 23.0391 0.585787 23.4142C0.960859 23.7893 1.46957 24 2 24H5C5.53043 24 6.03914 23.7893 6.41421 23.4142C6.78929 23.0391 7 22.5304 7 22V15C7 14.4696 6.78929 13.9609 6.41421 13.5858C6.03914 13.2107 5.53043 13 5 13ZM5 22H2V15H5V22Z" fill="#374957"/>
<path d="M22 13H11C10.4696 13 9.96086 13.2107 9.58579 13.5858C9.21071 13.9609 9 14.4696 9 15V22C9 22.5304 9.21071 23.0391 9.58579 23.4142C9.96086 23.7893 10.4696 24 11 24H22C22.5304 24 23.0391 23.7893 23.4142 23.4142C23.7893 23.0391 24 22.5304 24 22V15C24 14.4696 23.7893 13.9609 23.4142 13.5858C23.0391 13.2107 22.5304 13 22 13ZM22 22H11V15H22V22Z" fill="#374957"/>
</g>
<defs>
<clipPath id="clip0_1261_4007">
<rect width="24" height="24" fill="white"/>
</clipPath>
</defs>
</svg>
